# xmcd
#
# Track frame offsets:
#	150
#	14370
#	34400
#	49745
#	69348
#	90995
#	112763
#	129053
#	153413
#	171120
#
# Disc length: 2556 seconds
#
# Revision: 2651531742
# Processed by: cddbd v1.5.2PL0 Copyright (c) Steve Scherf et al.
# Submitted via: EZCDAudioConverter 8.0.2.1
#
DISCID=6e09fa0a
DTITLE=Thu Hương - Những Tình Khúc Học Sinh, Sinh Viên 3
DYEAR=1993
DGENRE=Retrospective Pop
TTITLE0=Vết son trên áo
TTITLE1=Mơ về anh
TTITLE2=Này người tình người đẹp xinh xinh
TTITLE3=Tiếc nuối
TTITLE4=Hãy vui lên bạn ơi
TTITLE5=Như giọt sầu rơi
TTITLE6=Cô bé dỗi hờn
TTITLE7=Huyền thoại một người con gái
TTITLE8=Trung Vương khung cửa mùa thu
TTITLE9=Và con tim đã vui trở lại
EXTD=
EXTT0=
EXTT1=
EXTT2=
EXTT3=
EXTT4=
EXTT5=
EXTT6=
EXTT7=
EXTT8=
EXTT9=
PLAYORDER=
